<?xml version="1.0" encoding="UTF-8"?>
<svg version="1.1" xmlns="http://www.w3.org/2000/svg" width="375" height="375">
<path d="M0 0 C0 112.2 0 224.4 0 340 C-26.34135185 345.26827037 -58.33287744 329.68145722 -81.1875 317.8125 C-81.96561035 317.40870117 -82.7437207 317.00490234 -83.54541016 316.58886719 C-88.31775853 314.05287672 -92.74984675 311.34945852 -97 308 C-97 307.34 -97 306.68 -97 306 C-97.88171875 305.58041016 -97.88171875 305.58041016 -98.78125 305.15234375 C-102.5343989 303.20308508 -105.71387175 300.64835994 -109 298 C-109.86625 297.30648438 -110.7325 296.61296875 -111.625 295.8984375 C-125.83715425 283.73314242 -137.29763171 267.50569553 -146 251 C-146.50901855 250.03562012 -146.50901855 250.03562012 -147.02832031 249.05175781 C-167.60638805 209.30349388 -171.85610802 162.85631602 -159 120 C-150.98647571 95.91886373 -138.250859 73.63686887 -120.44482422 55.47558594 C-118.90816685 53.90621163 -117.39400583 52.31674088 -115.87890625 50.7265625 C-86.07876998 19.80452815 -43.11278845 0 0 0 Z M-97.4375 72.0625 C-117.45579807 92.12385906 -137 122.60645015 -137 152 C-90.47 152.495 -90.47 152.495 -43 153 C-43 161.91 -43 170.82 -43 180 C-74.02 180.33 -105.04 180.66 -137 181 C-134.11083784 218.55910806 -117.03618973 251.23685839 -89.25 276.5625 C-87.84956438 277.7281151 -86.43028348 278.87120966 -85 280 C-84.50612793 280.39509766 -84.01225586 280.79019531 -83.50341797 281.19726562 C-67.84367326 293.60739498 -48.93169952 304.67805008 -29 308 C-29 217.25 -29 126.5 -29 33 C-52.30100543 33 -82.11511447 57.06291482 -97.4375 72.0625 Z " fill="#313131" transform="translate(179,16)"/>
<path d="M0 0 C34.26047088 -0.12536232 69.94786473 13.89839535 96.99609375 34.50048828 C99.07998652 36.05985346 101.2023144 37.54816339 103.34375 39.02734375 C104.72916892 39.99739261 106.11458568 40.96744457 107.5 41.9375 C108.14195312 42.37384766 108.78390625 42.81019531 109.4453125 43.25976562 C112.08075594 45.14346914 113.81311311 46.58797084 115.1640625 49.56640625 C115 52 115 52 113.3046875 54.0625 C112.50289063 54.701875 111.70109375 55.34125 110.875 56 C110.04226563 56.68707031 109.20953125 57.37414062 108.3515625 58.08203125 C107.57554687 58.71496094 106.79953125 59.34789062 106 60 C103.37886905 62.5615598 100.87623172 65.13886197 98.4375 67.875 C97.633125 68.57625 96.82875 69.2775 96 70 C92.4098207 69.71483301 90.73361884 68.03121713 88.25 65.5625 C72.22565308 50.96426809 49.42884426 39.80961475 29 33 C29 76.56 29 120.12 29 165 C32.3 161.7 35.6 158.4 39 155 C43.14257813 151.35351562 43.14257813 151.35351562 45.09204102 149.6809082 C48.4516096 146.72113473 51.57400625 143.52830797 54.71875 140.34375 C55.42092651 139.63778687 56.12310303 138.93182373 56.84655762 138.20446777 C59.06684603 135.97208642 61.28383955 133.73647889 63.5 131.5 C66.42409479 128.54909622 69.35163057 125.60166797 72.28125 122.65625 C73.264422 121.66063049 73.264422 121.66063049 74.26745605 120.64489746 C77.38283555 117.51329306 80.53748882 114.49233325 83.88671875 111.61108398 C88.66213099 107.48822649 93.08581863 103.03935977 97.53125 98.56640625 C98.40777222 97.68846909 99.28429443 96.81053192 100.18737793 95.9059906 C102.96062796 93.12718504 105.73036282 90.34490603 108.5 87.5625 C110.39010805 85.66680135 112.28101518 83.77190217 114.171875 81.87695312 C118.78391004 77.25394811 123.39307141 72.62809343 128 68 C131.85816871 69.76348905 133.73880807 71.83444887 136.375 75.1875 C139.02416984 78.54282272 141.69008737 81.76865555 144.625 84.875 C147 88 147 88 146.90185547 90.45751953 C145.78866604 93.59578555 144.51454038 94.69937036 141.9453125 96.8046875 C137.18727975 100.89243175 132.72234641 105.17957763 128.3046875 109.6328125 C127.62231018 110.31865417 126.93993286 111.00449585 126.23687744 111.71112061 C124.1141096 113.8469672 121.9941303 115.98554463 119.875 118.125 C117.06289829 120.9639384 114.24732735 123.79937177 111.4296875 126.6328125 C110.48873734 127.58621017 110.48873734 127.58621017 109.52877808 128.55886841 C105.76211641 132.3460014 101.86601408 135.91050074 97.82369995 139.40115356 C95.49468336 141.44301351 93.30551066 143.59798929 91.1328125 145.8046875 C90.31039062 146.63484375 89.48796875 147.465 88.640625 148.3203125 C87.39539063 149.58488281 87.39539063 149.58488281 86.125 150.875 C84.4424115 152.58300524 82.75762867 154.28885251 81.0703125 155.9921875 C80.33570801 156.73839355 79.60110352 157.48459961 78.84423828 158.25341797 C77 160 77 160 75 161 C74.34786708 163.02463255 74.34786708 163.02463255 74 165 C74.88048004 165.39201347 74.88048004 165.39201347 75.77874756 165.79194641 C78.13180327 167.07168272 79.66208484 168.42711638 81.54003906 170.32885742 C82.21464172 171.00683884 82.88924438 171.68482025 83.58428955 172.38334656 C84.30413025 173.11664688 85.02397095 173.8499472 85.765625 174.60546875 C86.51785339 175.36289871 87.27008179 176.12032867 88.04510498 176.90071106 C90.45153225 179.32494306 92.85119238 181.75572983 95.25 184.1875 C97.63533204 186.60059092 100.02215052 189.01216121 102.41204834 191.42073059 C103.89752375 192.91830564 105.38032038 194.41854445 106.85992432 195.92192078 C110.81463598 199.91421605 114.87604199 203.69157972 119.13290405 207.35899353 C121.90178369 209.79258534 124.49061726 212.38435126 127.07421875 215.01171875 C127.87180351 215.81498344 127.87180351 215.81498344 128.6855011 216.63447571 C130.35534462 218.3163516 132.02184236 220.0014792 133.6875 221.6875 C135.89677908 223.9235312 138.10946713 226.15610937 140.32421875 228.38671875 C140.82016037 228.89095871 141.31610199 229.39519867 141.82707214 229.91471863 C144.05702178 232.16019792 146.26001732 234.19563251 148.79223633 236.10083008 C151 238 151 238 151.93432617 240.01782227 C152.01766149 242.53306179 151.41022666 243.60933777 150.05078125 245.71484375 C149.39625977 246.74448242 149.39625977 246.74448242 148.72851562 247.79492188 C148.26123047 248.50197266 147.79394531 249.20902344 147.3125 249.9375 C146.86455078 250.64068359 146.41660156 251.34386719 145.95507812 252.06835938 C143.49554119 255.88833886 140.91746369 259.50860903 138 263 C134.3505569 262.4261691 132.71251405 261.05791275 130.171875 258.4296875 C129.45386719 257.6975 128.73585938 256.9653125 127.99609375 256.2109375 C127.25488281 255.44007813 126.51367188 254.66921875 125.75 253.875 C120.95073699 248.93082141 116.12735208 244.15468269 110.89746094 239.66601562 C107.87918494 237.01589785 105.06685217 234.17347154 102.25 231.3125 C101.69957031 230.75755859 101.14914062 230.20261719 100.58203125 229.63085938 C99.5256612 228.56562291 98.47148487 227.49820475 97.41992188 226.42822266 C96.17205003 225.17305582 94.89298713 223.94906131 93.609375 222.73046875 C92 221 92 221 92 219 C91.40630615 218.73678955 90.8126123 218.4735791 90.20092773 218.20239258 C87.89765876 216.94408979 86.5432861 215.69531066 84.78515625 213.76171875 C84.18759521 213.11243408 83.59003418 212.46314941 82.97436523 211.79418945 C82.34344971 211.09898193 81.71253418 210.40377441 81.0625 209.6875 C79.72304131 208.23542106 78.381865 206.78492483 77.0390625 205.3359375 C76.36520508 204.60858398 75.69134766 203.88123047 74.99707031 203.13183594 C72.03362946 199.96841717 69.00104044 196.87874397 65.9375 193.8125 C65.17095093 193.03942505 65.17095093 193.03942505 64.38891602 192.25073242 C61.08077248 188.95454145 57.62417359 185.94565075 54 183 C50.81653333 184.41738796 48.56097694 186.13337182 46.03125 188.51953125 C44.92716797 189.55883789 44.92716797 189.55883789 43.80078125 190.61914062 C43.04152344 191.34294922 42.28226563 192.06675781 41.5 192.8125 C40.74074219 193.52470703 39.98148438 194.23691406 39.19921875 194.97070312 C36.05812911 197.94320239 36.05812911 197.94320239 33 201 C32.30912292 201.663414 31.61824585 202.326828 30.90643311 203.01034546 C28.17993868 207.2860142 28.46873236 210.8679789 28.54589844 215.83911133 C28.54502228 217.31787247 28.54502228 217.31787247 28.54412842 218.82650757 C28.54691079 222.07870938 28.57801096 225.32998992 28.609375 228.58203125 C28.61683682 230.83932494 28.62253003 233.09662512 28.62652588 235.35392761 C28.64178672 241.29049616 28.68107294 247.22667227 28.7253418 253.16308594 C28.76628447 259.22260225 28.78453479 265.28218207 28.8046875 271.34179688 C28.84756632 283.22803685 28.91582352 295.11398577 29 307 C30.74645224 306.53262376 32.49225843 306.06283305 34.23779297 305.59204102 C35.21005829 305.33068863 36.18232361 305.06933624 37.18405151 304.80006409 C57.31050551 299.08175883 78.14740449 287.17890726 92.19921875 271.5546875 C94 270 94 270 95.953125 269.9921875 C98.66230284 271.32609567 100.54903933 273.05721848 102.75 275.125 C103.61882812 275.93066406 104.48765625 276.73632812 105.3828125 277.56640625 C106.67832031 278.77103516 106.67832031 278.77103516 108 280 C109.53596131 281.36063453 111.07700151 282.71557605 112.625 284.0625 C113.27726562 284.63097656 113.92953125 285.19945312 114.6015625 285.78515625 C115.06304687 286.18605469 115.52453125 286.58695312 116 287 C114.30221051 296.33784222 102.3280549 302.89758427 95 308 C84.14553268 315.22449854 72.82372595 321.51610839 61 327 C59.48212891 327.70576172 59.48212891 327.70576172 57.93359375 328.42578125 C40.90292579 335.91000676 19.70952602 341.89751255 1 341 C-0.5653159 339.4346841 -0.16259157 337.88401913 -0.20333862 335.70582581 C-0.22287975 334.77427485 -0.24242088 333.84272388 -0.26255417 332.88294411 C-0.27887516 331.84850859 -0.29519615 330.81407307 -0.31201172 329.74829102 C-0.33250202 328.66040976 -0.35299232 327.5725285 -0.37410355 326.45168114 C-0.44051231 322.78166782 -0.49825002 319.11158583 -0.5546875 315.44140625 C-0.57562344 314.15988741 -0.59655937 312.87836857 -0.61812973 311.55801582 C-1.12454356 280.10411209 -1.15682565 248.65035764 -1.13057351 217.19308943 C-1.125806 211.47175366 -1.12349766 205.75042081 -1.12231445 200.02908325 C-1.10588309 133.34974253 -0.65445133 66.67591147 0 0 Z " fill="#AEAFB0" transform="translate(197,16)"/>
<path d="M0 0 C0.33 0 0.66 0 1 0 C1.00634791 0.89624856 1.00634791 0.89624856 1.01282406 1.81060314 C1.14107025 19.90033161 1.27169869 37.99004218 1.40385818 56.07974243 C1.42626038 59.14637207 1.44860418 62.21300213 1.47089767 65.27963257 C1.75461998 104.28963746 2.07646855 143.29864168 2.4961853 182.3074646 C2.82115036 212.57847109 3.10146386 242.84799003 3.12293625 273.12094116 C3.124959 275.33022452 3.1286888 277.53949902 3.13284302 279.7487793 C3.17933984 307.67737621 3.17933984 307.67737621 2 320 C2.66 320.33 3.32 320.66 4 321 C3.34 321 2.68 321 2 321 C2 321.66 2 322.32 2 323 C2.66 323.33 3.32 323.66 4 324 C3.67 324.33 3.34 324.66 3 325 C2.92749702 326.64436757 2.91624828 328.29167202 2.9375 329.9375 C2.94652344 330.83339844 2.95554688 331.72929687 2.96484375 332.65234375 C2.97644531 333.42707031 2.98804688 334.20179688 3 335 C3 335.66 3 336.32 3 337 C6.6069563 338.27988772 8.78807274 337.85996486 12.25 336.5625 C15.51587747 335.35672074 18.02304391 334.84803514 21.5 335 C28.33064411 335.2507754 34.383529 332.80470616 40 329 C40.33 329.66 40.66 330.32 41 331 C43.3431213 330.74438677 45.67843403 330.40729228 48 330 C48.33 329.34 48.66 328.68 49 328 C50.65 328 52.3 328 54 328 C54 327.34 54 326.68 54 326 C54.62648437 325.90203125 55.25296875 325.8040625 55.8984375 325.703125 C57.12433594 325.47882813 57.12433594 325.47882813 58.375 325.25 C59.59316406 325.04117188 59.59316406 325.04117188 60.8359375 324.828125 C63.6205629 323.76252828 63.78958685 322.62685407 65 320 C68.3125 318.875 68.3125 318.875 72 318 C74.80067065 317.16513613 74.80067065 317.16513613 77 316 C77.33 315.01 77.66 314.02 78 313 C80.31 312.67 82.62 312.34 85 312 C85 311.34 85 310.68 85 310 C85.99 310 86.98 310 88 310 C88 309.34 88 308.68 88 308 C89.98 307.34 91.96 306.68 94 306 C94 305.34 94 304.68 94 304 C95.71484375 302.78125 95.71484375 302.78125 97.9375 301.5 C101.05432026 299.81545121 101.05432026 299.81545121 103 297 C103.66 297 104.32 297 105 297 C105.12375 296.401875 105.2475 295.80375 105.375 295.1875 C106 293 106 293 108 290 C108.68177416 288.67432801 109.35191436 287.34246312 110 286 C110.66 286 111.32 286 112 286 C112 286.66 112 287.32 112 288 C113.32 287.67 114.64 287.34 116 287 C114.30221051 296.33784222 102.3280549 302.89758427 95 308 C84.14553268 315.22449854 72.82372595 321.51610839 61 327 C59.48212891 327.70576172 59.48212891 327.70576172 57.93359375 328.42578125 C40.90292579 335.91000676 19.70952602 341.89751255 1 341 C-0.5653159 339.4346841 -0.16259157 337.88401913 -0.20333862 335.70582581 C-0.22287975 334.77427485 -0.24242088 333.84272388 -0.26255417 332.88294411 C-0.27887516 331.84850859 -0.29519615 330.81407307 -0.31201172 329.74829102 C-0.33250202 328.66040976 -0.35299232 327.5725285 -0.37410355 326.45168114 C-0.44051231 322.78166782 -0.49825002 319.11158583 -0.5546875 315.44140625 C-0.57562344 314.15988741 -0.59655937 312.87836857 -0.61812973 311.55801582 C-1.12454356 280.10411209 -1.15682565 248.65035764 -1.13057351 217.19308943 C-1.125806 211.47175366 -1.12349766 205.75042081 -1.12231445 200.02908325 C-1.10588309 133.34974253 -0.65445133 66.67591147 0 0 Z " fill="#808080" transform="translate(197,16)"/>
<path d="M0 0 C3.90853636 1.36314243 5.93244436 4.5831029 8.36328125 7.82421875 C8.36328125 8.48421875 8.36328125 9.14421875 8.36328125 9.82421875 C10.83828125 10.81421875 10.83828125 10.81421875 13.36328125 11.82421875 C13.36328125 12.48421875 13.36328125 13.14421875 13.36328125 13.82421875 C14.35328125 14.15421875 15.34328125 14.48421875 16.36328125 14.82421875 C19.05078125 17.26171875 19.05078125 17.26171875 21.36328125 19.82421875 C21.36328125 20.48421875 21.36328125 21.14421875 21.36328125 21.82421875 C21.92015625 22.03046875 22.47703125 22.23671875 23.05078125 22.44921875 C25.62411264 23.97930768 27.0937848 25.83217327 28.92578125 28.16796875 C31.03495365 30.59810216 33.49244834 32.53221482 36.0078125 34.52734375 C36.45511719 34.9553125 36.90242188 35.38328125 37.36328125 35.82421875 C37.36328125 36.48421875 37.36328125 37.14421875 37.36328125 37.82421875 C38.68328125 37.82421875 40.00328125 37.82421875 41.36328125 37.82421875 C41.36328125 38.48421875 41.36328125 39.14421875 41.36328125 39.82421875 C42.35328125 39.49421875 43.34328125 39.16421875 44.36328125 38.82421875 C45.56956133 41.15636023 46.52875505 43.32064014 47.36328125 45.82421875 C48.65533956 46.877007 49.99962842 47.86597622 51.36328125 48.82421875 C55.34389446 51.91122491 57.87042451 54.48881573 60.36328125 58.82421875 C64.55478334 63.35557236 68.9248743 67.7456926 74.61328125 70.26171875 C77.36328125 71.82421875 77.36328125 71.82421875 78.36328125 74.88671875 C78.85828125 76.34078125 78.85828125 76.34078125 79.36328125 77.82421875 C82.38107997 79.27582813 82.38107997 79.27582813 85.36328125 79.82421875 C85.36328125 78.17421875 85.36328125 76.52421875 85.36328125 74.82421875 C86.35328125 74.49421875 87.34328125 74.16421875 88.36328125 73.82421875 C88.36328125 72.50421875 88.36328125 71.18421875 88.36328125 69.82421875 C89.84828125 70.31921875 89.84828125 70.31921875 91.36328125 70.82421875 C91.69328125 69.17421875 92.02328125 67.52421875 92.36328125 65.82421875 C93.00265625 65.70046875 93.64203125 65.57671875 94.30078125 65.44921875 C94.98140625 65.24296875 95.66203125 65.03671875 96.36328125 64.82421875 C96.85828125 63.83421875 96.85828125 63.83421875 97.36328125 62.82421875 C96.91318692 68.14161218 94.00614927 71.82277084 91.05078125 76.07421875 C90.56416016 76.80640625 90.07753906 77.53859375 89.57617188 78.29296875 C89.09728516 78.9890625 88.61839844 79.68515625 88.125 80.40234375 C87.69147217 81.0355957 87.25794434 81.66884766 86.8112793 82.32128906 C84.98496675 84.21688509 84.00351526 84.74613649 81.36328125 84.82421875 C79.38378906 83.39648438 79.38378906 83.39648438 77.31640625 81.23046875 C76.55328125 80.44671875 75.79015625 79.66296875 75.00390625 78.85546875 C73.82054687 77.6025 73.82054687 77.6025 72.61328125 76.32421875 C71.05848581 74.70723149 69.50121522 73.09262031 67.94140625 71.48046875 C67.17538086 70.68809814 66.40935547 69.89572754 65.62011719 69.0793457 C62.93883463 66.40009354 60.12189741 63.93114622 57.24316406 61.46826172 C54.22656643 58.83010997 51.42364026 55.99109543 48.61328125 53.13671875 C48.06285156 52.58177734 47.51242187 52.02683594 46.9453125 51.45507812 C45.88894245 50.38984166 44.83476612 49.3224235 43.78320312 48.25244141 C42.53533128 46.99727457 41.25626838 45.77328006 39.97265625 44.5546875 C38.36328125 42.82421875 38.36328125 42.82421875 38.36328125 40.82421875 C37.7695874 40.5610083 37.17589355 40.29779785 36.56420898 40.02661133 C34.26094001 38.76830854 32.90656735 37.51952941 31.1484375 35.5859375 C30.55087646 34.93665283 29.95331543 34.28736816 29.33764648 33.6184082 C28.70673096 32.92320068 28.07581543 32.22799316 27.42578125 31.51171875 C26.08632256 30.05963981 24.74514625 28.60914358 23.40234375 27.16015625 C22.72848633 26.43280273 22.05462891 25.70544922 21.36035156 24.95605469 C18.39691071 21.79263592 15.36432169 18.70296272 12.30078125 15.63671875 C11.78974854 15.12133545 11.27871582 14.60595215 10.75219727 14.07495117 C7.44405373 10.7787602 3.98745484 7.7698695 0.36328125 4.82421875 C-2.82018542 6.24160671 -5.07574181 7.95759057 -7.60546875 10.34375 C-8.34152344 11.03662109 -9.07757813 11.72949219 -9.8359375 12.44335938 C-10.59519531 13.16716797 -11.35445312 13.89097656 -12.13671875 14.63671875 C-12.89597656 15.34892578 -13.65523437 16.06113281 -14.4375 16.79492188 C-17.57858964 19.76742114 -17.57858964 19.76742114 -20.63671875 22.82421875 C-21.67303436 23.81933975 -21.67303436 23.81933975 -22.73028564 24.83456421 C-25.45678007 29.11023295 -25.16798639 32.69219765 -25.09082031 37.66333008 C-25.09140442 38.64917084 -25.09198853 39.6350116 -25.09259033 40.65072632 C-25.08980796 43.90292813 -25.05870779 47.15420867 -25.02734375 50.40625 C-25.01988193 52.66354369 -25.01418872 54.92084387 -25.01019287 57.17814636 C-24.99493203 63.11471491 -24.95564581 69.05089102 -24.91137695 74.98730469 C-24.87043428 81.046821 -24.85218396 87.10640082 -24.83203125 93.16601562 C-24.78915243 105.0522556 -24.72089523 116.93820452 -24.63671875 128.82421875 C-22.89026651 128.35684251 -21.14446032 127.8870518 -19.39892578 127.41625977 C-18.42666046 127.15490738 -17.45439514 126.89355499 -16.45266724 126.62428284 C4.92002927 120.55189657 25.02959632 107.81450983 40.36328125 91.82421875 C41.84828125 92.31921875 41.84828125 92.31921875 43.36328125 92.82421875 C42.70328125 92.82421875 42.04328125 92.82421875 41.36328125 92.82421875 C41.36328125 93.48421875 41.36328125 94.14421875 41.36328125 94.82421875 C42.00265625 95.11296875 42.64203125 95.40171875 43.30078125 95.69921875 C45.36328125 96.82421875 45.36328125 96.82421875 46.36328125 98.82421875 C42.36328125 99.82421875 42.36328125 99.82421875 40.55078125 100.19921875 C33.78925844 102.13108241 29.45717371 104.87415479 25.12109375 110.41015625 C22.4749741 113.77943904 20.54114401 115.69506665 16.36328125 116.82421875 C15.70328125 116.82421875 15.04328125 116.82421875 14.36328125 116.82421875 C12.8167675 117.54214165 11.29844323 118.32177909 9.80078125 119.13671875 C8.59228516 119.78060547 8.59228516 119.78060547 7.359375 120.4375 C5.05853552 121.74062572 5.05853552 121.74062572 4.36328125 124.82421875 C3.12578125 124.92734375 1.88828125 125.03046875 0.61328125 125.13671875 C-3.02550507 125.58358725 -4.79976397 126.46008976 -7.63671875 128.82421875 C-9.61418478 129.55502141 -11.61744364 130.21843622 -13.63671875 130.82421875 C-14.60609375 131.19546875 -15.57546875 131.56671875 -16.57421875 131.94921875 C-20.04436914 132.94069029 -23.04544475 132.96786971 -26.63671875 132.82421875 C-27.54149897 130.1098781 -27.76223445 128.55178914 -27.76370239 125.76559448 C-27.76652222 124.94147568 -27.76934204 124.11735687 -27.77224731 123.26826477 C-27.77022308 122.36746689 -27.76819885 121.46666901 -27.76611328 120.53857422 C-27.7678656 119.58698929 -27.76961792 118.63540436 -27.77142334 117.65498352 C-27.77583394 114.50043935 -27.77290522 111.34595102 -27.76953125 108.19140625 C-27.77020485 105.99765004 -27.77117535 103.8038939 -27.77243042 101.61013794 C-27.77390659 97.00505871 -27.77175664 92.39999885 -27.76708984 87.79492188 C-27.76141273 81.90725078 -27.76465923 76.01962548 -27.77066231 70.1319561 C-27.77428728 65.59707295 -27.7731201 61.06220053 -27.77053452 56.52731705 C-27.76986955 54.35770792 -27.77067856 52.18809781 -27.77301407 50.01848984 C-27.77557013 46.97437744 -27.77165767 43.93033751 -27.76611328 40.88623047 C-27.76813751 39.99757797 -27.77016174 39.10892548 -27.77224731 38.19334412 C-27.73375961 26.71404173 -27.73375961 26.71404173 -26.63671875 21.82421875 C-24.69921875 19.94921875 -24.69921875 19.94921875 -22.63671875 18.82421875 C-21.97671875 17.83421875 -21.31671875 16.84421875 -20.63671875 15.82421875 C-19.97671875 15.82421875 -19.31671875 15.82421875 -18.63671875 15.82421875 C-18.63671875 14.17421875 -18.63671875 12.52421875 -18.63671875 10.82421875 C-16.98671875 10.16421875 -15.33671875 9.50421875 -13.63671875 8.82421875 C-13.30671875 9.48421875 -12.97671875 10.14421875 -12.63671875 10.82421875 C-12.38535156 10.24285156 -12.13398438 9.66148437 -11.875 9.0625 C-10.47891152 6.53897098 -8.95585657 4.94771868 -6.82421875 3.01171875 C-6.15777344 2.38652344 -5.49132812 1.76132813 -4.8046875 1.1171875 C-2.63671875 -0.17578125 -2.63671875 -0.17578125 0 0 Z " fill="#919394" transform="translate(250.63671875,194.17578125)"/>
<path d="M0 0 C2.4375 0.8125 2.4375 0.8125 5 2 C5.33 2.99 5.66 3.98 6 5 C6.515625 5.515625 7.03125 6.03125 7.5625 6.5625 C8.036875 7.036875 8.51125 7.51125 9 8 C9 8.66 9 9.32 9 10 C10.65 10.66 12.3 11.32 14 12 C14 12.66 14 13.32 14 14 C14.99 14.33 15.98 14.66 17 15 C19.6875 17.4375 19.6875 17.4375 22 20 C22 20.66 22 21.32 22 22 C22.556875 22.20625 23.11375 22.4125 23.6875 22.625 C26.26083139 24.15508893 27.73050355 26.00795452 29.5625 28.34375 C31.6716724 30.77388341 34.12916709 32.70799607 36.64453125 34.703125 C37.09183594 35.13109375 37.53914063 35.5590625 38 36 C38 36.66 38 37.32 38 38 C39.32 38 40.64 38 42 38 C42 38.66 42 39.32 42 40 C42.99 39.67 43.98 39.34 45 39 C46.20628008 41.33214148 47.1654738 43.49642139 48 46 C49.29205831 47.05278825 50.63634717 48.04175747 52 49 C55.98061321 52.08700616 58.50714326 54.66459698 61 59 C65.19150209 63.53135361 69.56159305 67.92147385 75.25 70.4375 C78 72 78 72 79 75.0625 C79.495 76.5165625 79.495 76.5165625 80 78 C83.01779872 79.45160938 83.01779872 79.45160938 86 80 C86 78.35 86 76.7 86 75 C86.99 74.67 87.98 74.34 89 74 C89 72.68 89 71.36 89 70 C90.485 70.495 90.485 70.495 92 71 C92.33 69.35 92.66 67.7 93 66 C93.639375 65.87625 94.27875 65.7525 94.9375 65.625 C95.618125 65.41875 96.29875 65.2125 97 65 C97.495 64.01 97.495 64.01 98 63 C97.54990567 68.31739343 94.64286802 71.99855209 91.6875 76.25 C91.20087891 76.9821875 90.71425781 77.714375 90.21289062 78.46875 C89.73400391 79.16484375 89.25511719 79.8609375 88.76171875 80.578125 C88.32819092 81.21137695 87.89466309 81.84462891 87.44799805 82.49707031 C85.6216855 84.39266634 84.64023401 84.92191774 82 85 C80.02050781 83.57226562 80.02050781 83.57226562 77.953125 81.40625 C77.19 80.6225 76.426875 79.83875 75.640625 79.03125 C74.45726562 77.77828125 74.45726562 77.77828125 73.25 76.5 C71.69520456 74.88301274 70.13793397 73.26840156 68.578125 71.65625 C67.81209961 70.86387939 67.04607422 70.07150879 66.25683594 69.25512695 C63.57555338 66.57587479 60.75861616 64.10692747 57.87988281 61.64404297 C54.86328518 59.00589122 52.06035901 56.16687668 49.25 53.3125 C48.69957031 52.75755859 48.14914062 52.20261719 47.58203125 51.63085938 C46.5256612 50.56562291 45.47148487 49.49820475 44.41992188 48.42822266 C43.17205003 47.17305582 41.89298713 45.94906131 40.609375 44.73046875 C39 43 39 43 39 41 C38.40630615 40.73678955 37.8126123 40.4735791 37.20092773 40.20239258 C34.89765876 38.94408979 33.5432861 37.69531066 31.78515625 35.76171875 C31.18759521 35.11243408 30.59003418 34.46314941 29.97436523 33.79418945 C29.34344971 33.09898193 28.71253418 32.40377441 28.0625 31.6875 C26.72304131 30.23542106 25.381865 28.78492483 24.0390625 27.3359375 C23.36520508 26.60858398 22.69134766 25.88123047 21.99707031 25.13183594 C19.03362946 21.96841717 16.00104044 18.87874397 12.9375 15.8125 C12.42646729 15.2971167 11.91543457 14.7817334 11.38891602 14.25073242 C8.08077248 10.95454145 4.62417359 7.94565075 1 5 C-1.87981123 6.17325643 -3.37938667 7.37938667 -5.625 9.625 C-6.40875 10.40875 -7.1925 11.1925 -8 12 C-8.66 12 -9.32 12 -10 12 C-8.43873668 8.16780823 -5.97133075 5.82638778 -3 3 C-2.401875 2.401875 -1.80375 1.80375 -1.1875 1.1875 C-0.795625 0.795625 -0.40375 0.40375 0 0 Z " fill="#777879" transform="translate(250,194)"/>
<path d="M0 0 C0.66 0 1.32 0 2 0 C2 18.48 2 36.96 2 56 C8.28467772 57.17311071 8.28467772 57.17311071 13.375 55.5625 C16.60544593 54.34150094 19.04976315 53.84972836 22.5 54 C29.33064411 54.2507754 35.383529 51.80470616 41 48 C41.33 48.66 41.66 49.32 42 50 C44.3431213 49.74438677 46.67843403 49.40729228 49 49 C49.495 48.01 49.495 48.01 50 47 C51.65 47 53.3 47 55 47 C55 46.34 55 45.68 55 45 C55.62648437 44.90203125 56.25296875 44.8040625 56.8984375 44.703125 C57.71570313 44.55359375 58.53296875 44.4040625 59.375 44.25 C60.18710937 44.11078125 60.99921875 43.9715625 61.8359375 43.828125 C64.6205629 42.76252828 64.78958685 41.62685407 66 39 C69.3125 37.875 69.3125 37.875 73 37 C75.80067065 36.16513613 75.80067065 36.16513613 78 35 C78.33 34.01 78.66 33.02 79 32 C81.31 31.67 83.62 31.34 86 31 C86 30.34 86 29.68 86 29 C86.99 29 87.98 29 89 29 C89 28.34 89 27.68 89 27 C90.98 26.34 92.96 25.68 95 25 C95 24.34 95 23.68 95 23 C96.71484375 21.78125 96.71484375 21.78125 98.9375 20.5 C102.05432026 18.81545121 102.05432026 18.81545121 104 16 C104.66 16 105.32 16 106 16 C106.185625 15.1028125 106.185625 15.1028125 106.375 14.1875 C107 12 107 12 109 9 C109.68177416 7.67432801 110.35191436 6.34246312 111 5 C111.66 5 112.32 5 113 5 C113 5.66 113 6.32 113 7 C114.32 6.67 115.64 6.34 117 6 C115.30221051 15.33784222 103.3280549 21.89758427 96 27 C85.14553268 34.22449854 73.82372595 40.51610839 62 46 C60.98808594 46.47050781 59.97617188 46.94101562 58.93359375 47.42578125 C41.90292579 54.91000676 20.70952602 60.89751255 2 60 C0.25699027 58.25699027 0.82993914 55.84304811 0.79467773 53.47045898 C0.77473251 52.28931015 0.75478729 51.10816132 0.73423767 49.89122009 C0.70916893 47.96313255 0.70916893 47.96313255 0.68359375 45.99609375 C0.66281265 44.68794205 0.64203156 43.37979034 0.62062073 42.03199768 C0.565337 38.54844553 0.51595569 35.0648334 0.46777344 31.58117676 C0.41760426 28.0286727 0.36189433 24.4762561 0.30664062 20.92382812 C0.19898209 13.94929454 0.09755433 6.97468202 0 0 Z " fill="#737376" transform="translate(196,297)"/>
<path d="M0 0 C1.2065625 0.0309375 1.2065625 0.0309375 2.4375 0.0625 C2.60966412 19.45828699 2.77600207 38.85412152 2.9375 58.25 C2.94344854 58.96360042 2.94939708 59.67720084 2.95552588 60.41242552 C3.25241439 96.06635096 3.54283585 131.71950549 3.5 167.375 C3.49914398 168.09308712 3.49828796 168.81117424 3.49740601 169.55102158 C3.48687029 177.72154352 3.46841609 185.89202827 3.4375 194.0625 C3.1075 194.0625 2.7775 194.0625 2.4375 194.0625 C2.1075 183.5025 1.7775 172.9425 1.4375 162.0625 C1.1075 162.0625 0.7775 162.0625 0.4375 162.0625 C0.4375 109.2625 0.4375 56.4625 0.4375 2.0625 C-0.8825 1.7325 -2.2025 1.4025 -3.5625 1.0625 C-2.5625 0.0625 -2.5625 0.0625 0 0 Z " fill="#262425" transform="translate(149.5625,46.9375)"/>
<path d="M0 0 C8.80215504 -0.56183968 15.76240706 2.68328452 23.4453125 6.71875 C25.37413547 7.68611076 27.34863962 8.56311619 29.33984375 9.39453125 C33.21234551 11.09314195 36.79379858 13.05525991 40.4375 15.1875 C41.07365234 15.55552734 41.70980469 15.92355469 42.36523438 16.30273438 C43.91218085 17.19833496 45.45638662 18.0986668 47 19 C47 19.66 47 20.32 47 21 C47.70125 21.2475 48.4025 21.495 49.125 21.75 C54.71308095 24.17960041 58.8343342 27.60290833 63 32 C64.78524358 34.24465442 64.78524358 34.24465442 67.17578125 34.0546875 C71.4739845 32.44954936 74.05887672 29.40073723 77.1875 26.125 C77.81591797 25.48691406 78.44433594 24.84882812 79.09179688 24.19140625 C81.6802928 21.53923609 83.93611227 19.09583159 86 16 C86.7578125 18.25 86.7578125 18.25 87 21 C85.3046875 23.0625 85.3046875 23.0625 82.875 25 C82.04226563 25.68707031 81.20953125 26.37414062 80.3515625 27.08203125 C79.57554687 27.71496094 78.79953125 28.34789063 78 29 C75.37886905 31.5615598 72.87623172 34.13886197 70.4375 36.875 C69.633125 37.57625 68.82875 38.2775 68 39 C64.4098207 38.71483301 62.73361884 37.03121713 60.25 34.5625 C45.36463942 21.00188834 24.84420383 11.0761688 6.20703125 3.8671875 C4.06487789 3.02549185 2.04132073 2.06054824 0 1 C0 0.67 0 0.34 0 0 Z " fill="#939393" transform="translate(225,47)"/>
<path d="M0 0 C0.88815903 -0.00014603 1.77631805 -0.00029205 2.69139099 -0.0004425 C5.6240382 0.00025359 8.55662171 0.00803182 11.48925781 0.01586914 C13.52378301 0.0177344 15.55830866 0.01915779 17.59283447 0.02015686 C22.94563031 0.02397355 28.29839898 0.03379663 33.65118408 0.04486084 C39.114132 0.05509317 44.57708432 0.05965839 50.04003906 0.06469727 C60.75749891 0.07541963 71.4749386 0.09248591 82.19238281 0.11352539 C82.19238281 1.10352539 82.19238281 2.09352539 82.19238281 3.11352539 C50.84238281 3.11352539 19.49238281 3.11352539 -12.80761719 3.11352539 C-12.80761719 2.45352539 -12.80761719 1.79352539 -12.80761719 1.11352539 C-8.54398801 -0.0835951 -4.39750783 -0.01889967 0 0 Z " fill="#414040" transform="translate(52.8076171875,167.886474609375)"/>
<path d="M0 0 C0.66 0.33 1.32 0.66 2 1 C1.5625 2.3125 1.125 3.625 0.6875 4.9375 C0.41421875 5.76636719 0.1409375 6.59523437 -0.140625 7.44921875 C-0.67049892 9.02198087 -1.21880334 10.58883841 -1.796875 12.14453125 C-3.85551283 17.80578528 -4.78301788 23.40813549 -5.5703125 29.375 C-6 32 -6 32 -7 33 C-9.21380659 48.41465327 -12.70226288 79.15977817 -3.3125 92.375 C-2.879375 92.91125 -2.44625 93.4475 -2 94 C-2.33 94.99 -2.66 95.98 -3 97 C-2.34 97.66 -1.68 98.32 -1 99 C-1 100.32 -1 101.64 -1 103 C-0.8513773 104.75162469 -0.68402733 106.50174037 -0.5 108.25 C-0.4071875 109.14203125 -0.314375 110.0340625 -0.21875 110.953125 C-0.1465625 111.62859375 -0.074375 112.3040625 0 113 C-0.99 112.67 -1.98 112.34 -3 112 C-4.01613856 109.21089564 -4.83031868 106.55214505 -5.5625 103.6875 C-5.77938477 102.86950928 -5.99626953 102.05151855 -6.21972656 101.20874023 C-13.1885853 74.32998956 -12.83175344 45.96051144 -6.625 19 C-6.42817627 18.13930908 -6.23135254 17.27861816 -6.02856445 16.3918457 C-4.6163191 10.60764336 -2.59269033 5.35682493 0 0 Z " fill="#181617" transform="translate(24,127)"/>
<path d="M0 0 C1.85583458 0.02530289 1.85583458 0.02530289 3.74916077 0.05111694 C5.10938857 0.07506423 6.4696129 0.09920932 7.82983398 0.12353516 C9.24299055 0.14535918 10.65615298 0.16680616 12.06932068 0.18789673 C15.04953182 0.23349403 18.02965637 0.28264935 21.00976562 0.33447266 C24.74647323 0.39932979 28.48324386 0.45722172 32.22010231 0.5126152 C50.16344039 0.78085909 68.08444231 1.23986848 86.01342773 2.03759766 C86.01342773 2.69759766 86.01342773 3.35759766 86.01342773 4.03759766 C54.99342773 4.03759766 23.97342773 4.03759766 -7.98657227 4.03759766 C-7.98657227 6.67759766 -7.98657227 9.31759766 -7.98657227 12.03759766 C-9.97019295 9.12050841 -9.97419136 7.91378862 -9.61157227 4.28759766 C-9.40532227 3.21509766 -9.19907227 2.14259766 -8.98657227 1.03759766 C-5.72157452 -0.05073493 -3.43314936 -0.05357564 0 0 Z " fill="#161516" transform="translate(49.986572265625,192.96240234375)"/>
<path d="M0 0 C0 3.95564164 -1.40521394 5.10866696 -4 8 C-4.99 8.66 -5.98 9.32 -7 10 C-7 10.99 -7 11.98 -7 13 C-8.50390625 14.54296875 -8.50390625 14.54296875 -10.5625 16.1875 C-18.1259059 22.1428939 -18.1259059 22.1428939 -22.64189339 30.33716965 C-22.87107222 32.9644272 -22.89005146 35.51144275 -22.82641602 38.14794922 C-22.83065079 39.13101547 -22.83488556 40.11408173 -22.83924866 41.12693787 C-22.84453923 44.35391886 -22.79997636 47.57806477 -22.75390625 50.8046875 C-22.74592024 53.05289917 -22.7407484 55.30112244 -22.73826599 57.54934692 C-22.72605014 62.24847601 -22.69114801 66.94666655 -22.63793945 71.64550781 C-22.56984877 77.67842419 -22.54108507 83.71067957 -22.52694798 89.74394035 C-22.51185169 95.49344423 -22.47740506 101.24278289 -22.44140625 106.9921875 C-22.43349154 108.64355021 -22.43349154 108.64355021 -22.42541695 110.32827377 C-22.40703846 113.42853627 -22.37490706 116.52832591 -22.33813477 119.62841797 C-22.334328 120.55308365 -22.33052124 121.47774933 -22.32659912 122.43043518 C-22.31373367 123.27145279 -22.30086823 124.1124704 -22.28761292 124.97897339 C-22.28036477 125.71154799 -22.27311663 126.44412258 -22.26564884 127.19889641 C-22.14577407 129.25180079 -22.14577407 129.25180079 -20 131 C-21.65 130.67 -23.3 130.34 -25 130 C-25.02320627 117.24744331 -25.04095729 104.49489168 -25.05181217 91.74231815 C-25.05702288 85.82031062 -25.06408757 79.89831756 -25.07543945 73.97631836 C-25.08633278 68.25751542 -25.09229048 62.53872638 -25.09487724 56.81991386 C-25.09671989 54.64192931 -25.10031807 52.46394548 -25.10573006 50.28596687 C-25.11302606 47.22716778 -25.11398734 44.16842559 -25.11352539 41.10961914 C-25.11712067 40.21625351 -25.12071594 39.32288788 -25.12442017 38.40245056 C-25.10574401 26.91722747 -25.10574401 26.91722747 -24 22 C-22.0625 20.125 -22.0625 20.125 -20 19 C-19.34 18.01 -18.68 17.02 -18 16 C-17.34 16 -16.68 16 -16 16 C-16 14.35 -16 12.7 -16 11 C-14.35 10.34 -12.7 9.68 -11 9 C-10.67 9.66 -10.34 10.32 -10 11 C-9.75507813 10.41734375 -9.51015625 9.8346875 -9.2578125 9.234375 C-7.79564126 6.63697764 -6.15259586 5.16024169 -3.875 3.25 C-3.15054688 2.63640625 -2.42609375 2.0228125 -1.6796875 1.390625 C-1.12539062 0.93171875 -0.57109375 0.4728125 0 0 Z " fill="#858587" transform="translate(248,194)"/>
<path d="M0 0 C0.99 0.495 0.99 0.495 2 1 C1.35071533 1.64855957 0.70143066 2.29711914 0.0324707 2.96533203 C-3.03469995 6.03243552 -6.09457855 9.10678154 -9.15498352 12.18063354 C-12.49252357 15.53159155 -15.83273845 18.8798779 -19.1730957 22.22802734 C-20.92823058 23.98819499 -22.68246743 25.74925857 -24.43579102 27.51123047 C-26.98213994 30.06978578 -29.5317727 32.62502982 -32.08203125 35.1796875 C-32.85625931 35.95907684 -33.63048737 36.73846619 -34.42817688 37.54147339 C-38.56621762 41.6799342 -42.79430503 45.63338993 -47.22862244 49.45223999 C-49.54268753 51.47417901 -51.71165831 53.61542692 -53.8671875 55.8046875 C-54.68960937 56.63484375 -55.51203125 57.465 -56.359375 58.3203125 C-57.60460937 59.58488281 -57.60460937 59.58488281 -58.875 60.875 C-60.5575885 62.58300524 -62.24237133 64.28885251 -63.9296875 65.9921875 C-64.66429199 66.73839355 -65.39889648 67.48459961 -66.15576172 68.25341797 C-68 70 -68 70 -70 71 C-70.66 71.99 -71.32 72.98 -72 74 C-72.3125 71.8125 -72.3125 71.8125 -72 69 C-69.75 66.4375 -69.75 66.4375 -67 64 C-64.63192631 61.69958556 -62.84235203 59.76352804 -61 57 C-58.375 55.8125 -58.375 55.8125 -56 55 C-56 54.34 -56 53.68 -56 53 C-54.56640625 51.5546875 -54.56640625 51.5546875 -52.5625 49.875 C-51.47195313 48.94494141 -51.47195313 48.94494141 -50.359375 47.99609375 C-49.58078125 47.33738281 -48.8021875 46.67867187 -48 46 C-41.66357441 40.61626908 -41.66357441 40.61626908 -36.0625 34.5 C-35.381875 33.675 -34.70125 32.85 -34 32 C-33.34 32 -32.68 32 -32 32 C-32 31.34 -32 30.68 -32 30 C-31.34 30 -30.68 30 -30 30 C-29.505 28.515 -29.505 28.515 -29 27 C-27.49951172 25.52294922 -27.49951172 25.52294922 -25.5546875 23.9296875 C-20.45731372 19.60567699 -15.81220393 14.8849866 -11.125 10.125 C-9.4424115 8.41699476 -7.75762867 6.71114749 -6.0703125 5.0078125 C-4.96840576 3.88850342 -4.96840576 3.88850342 -3.84423828 2.74658203 C-2 1 -2 1 0 0 Z " fill="#8A8A8C" transform="translate(342,106)"/>
<path d="M0 0 C0.66 0 1.32 0 2 0 C2 18.48 2 36.96 2 56 C8.28467772 57.17311071 8.28467772 57.17311071 13.375 55.5625 C16.60544593 54.34150094 19.04976315 53.84972836 22.5 54 C29.33064411 54.2507754 35.383529 51.80470616 41 48 C41.33 48.66 41.66 49.32 42 50 C42.66 49.67 43.32 49.34 44 49 C46.3329866 48.95977609 48.66706666 48.95679753 51 49 C50 51 50 51 47.09765625 52.1484375 C45.75694424 52.57130643 44.41135454 52.97887088 43.0625 53.375 C41.96663574 53.69827271 41.96663574 53.69827271 40.84863281 54.02807617 C28.74883713 57.38405258 14.61077406 60.60495001 2 60 C0.25699027 58.25699027 0.82993914 55.84304811 0.79467773 53.47045898 C0.77473251 52.28931015 0.75478729 51.10816132 0.73423767 49.89122009 C0.70916893 47.96313255 0.70916893 47.96313255 0.68359375 45.99609375 C0.66281265 44.68794205 0.64203156 43.37979034 0.62062073 42.03199768 C0.565337 38.54844553 0.51595569 35.0648334 0.46777344 31.58117676 C0.41760426 28.0286727 0.36189433 24.4762561 0.30664062 20.92382812 C0.19898209 13.94929454 0.09755433 6.97468202 0 0 Z " fill="#6A6B6B" transform="translate(196,297)"/>
<path d="M0 0 C-0.57344937 2.86724686 -0.8614515 3.8614515 -3 6 C-3 5.01 -3 4.02 -3 3 C-6.3 3.33 -9.6 3.66 -13 4 C-13 4.66 -13 5.32 -13 6 C-13.66 6 -14.32 6 -15 6 C-15 5.34 -15 4.68 -15 4 C-16.46015291 4.28241641 -17.91809793 4.57626614 -19.375 4.875 C-20.59316406 5.11863281 -20.59316406 5.11863281 -21.8359375 5.3671875 C-24.18673923 5.86658932 -24.18673923 5.86658932 -26 8 C-26 7.34 -26 6.68 -26 6 C-27.65 6.33 -29.3 6.66 -31 7 C-31 6.34 -31 5.68 -31 5 C-32.32 5.33 -33.64 5.66 -35 6 C-35 6.66 -35 7.32 -35 8 C-49.47572816 14 -49.47572816 14 -54 14 C-54.928125 14.33 -55.85625 14.66 -56.8125 15 C-59.78490986 15.93252074 -61.92194279 16.18106219 -65 16 C-61.47079779 12.91880532 -57.49244047 11.54377158 -53.125 10.0625 C-51.98780518 9.67227661 -51.98780518 9.67227661 -50.82763672 9.27416992 C-48.55579018 8.50330527 -46.27938706 7.74824244 -44 7 C-42.824375 6.61328125 -41.64875 6.2265625 -40.4375 5.828125 C-27.5086155 1.86408023 -13.56578639 -0.82309266 0 0 Z " fill="#555555" transform="translate(179,16)"/>
<path d="M0 0 C8.64333253 0.61738089 16.61293196 1.24116819 25 2.9375 C25.88816406 3.10701172 26.77632812 3.27652344 27.69140625 3.45117188 C32.25789651 4.34609508 36.61894587 5.39313311 41 7 C40.67 7.66 40.34 8.32 40 9 C39.34515625 8.88406494 38.6903125 8.76812988 38.015625 8.64868164 C35.01077559 8.11789918 32.00539592 7.59017887 29 7.0625 C27.97003906 6.88009766 26.94007813 6.69769531 25.87890625 6.50976562 C20.26098926 5.52573558 14.66256874 4.67641606 9 4 C8.030625 3.79375 7.06125 3.5875 6.0625 3.375 C5.381875 3.25125 4.70125 3.1275 4 3 C2.22509454 4.77490546 2.76500027 7.37784902 2.68359375 9.78515625 C2.64169922 10.95498047 2.59980469 12.12480469 2.55664062 13.33007812 C2.49766602 15.17762695 2.49766602 15.17762695 2.4375 17.0625 C2.39431641 18.29806641 2.35113281 19.53363281 2.30664062 20.80664062 C2.20015802 23.87097335 2.09814576 26.93539073 2 30 C1.67 30 1.34 30 1 30 C0.67 20.1 0.34 10.2 0 0 Z " fill="#D1D1D3" transform="translate(198,16)"/>
<path d="M0 0 C2.31 0.33 4.62 0.66 7 1 C6.67 1.99 6.34 2.98 6 4 C6.928125 4.2165625 6.928125 4.2165625 7.875 4.4375 C10 5 10 5 12 6 C12.33 5.01 12.66 4.02 13 3 C13 3.99 13 4.98 13 6 C15.98241547 6.77321882 18.97580475 7.41196203 22 8 C22 8.66 22 9.32 22 10 C23.65 9.34 25.3 8.68 27 8 C27.33 8.99 27.66 9.98 28 11 C29.32 10.34 30.64 9.68 32 9 C32 9.66 32 10.32 32 11 C32.66 10.34 33.32 9.68 34 9 C36.125 9.375 36.125 9.375 38 10 C38 10.99 38 11.98 38 13 C40.475 13.99 40.475 13.99 43 15 C40 17 40 17 38.01733398 16.80322266 C37.26782471 16.5922998 36.51831543 16.38137695 35.74609375 16.1640625 C34.89950195 15.92792236 34.05291016 15.69178223 33.18066406 15.44848633 C32.27541992 15.17673584 31.37017578 14.90498535 30.4375 14.625 C29.5103418 14.35260498 28.58318359 14.08020996 27.62792969 13.79956055 C21.17341132 11.83186708 14.93078086 9.51757779 8.75 6.8125 C7.98228271 6.48008301 7.21456543 6.14766602 6.42358398 5.80517578 C4.5727822 4.95828152 2.77912678 3.98863798 1 3 C0.67 2.01 0.34 1.02 0 0 Z " fill="#141214" transform="translate(107,336)"/>
<path d="M0 0 C0.66 0.33 1.32 0.66 2 1 C1.5625 2.3125 1.125 3.625 0.6875 4.9375 C0.41421875 5.76636719 0.1409375 6.59523437 -0.140625 7.44921875 C-0.67049892 9.02198087 -1.21880334 10.58883841 -1.796875 12.14453125 C-3.85551283 17.80578528 -4.78301788 23.40813549 -5.5703125 29.375 C-6 32 -6 32 -7 33 C-7.30218911 35.44198396 -7.54717231 37.86585062 -7.75390625 40.31640625 C-7.81907944 41.04746078 -7.88425262 41.77851532 -7.95140076 42.53172302 C-8.1593196 44.87496541 -8.36097298 47.21870007 -8.5625 49.5625 C-8.70206274 51.14782271 -8.84203137 52.73310975 -8.98242188 54.31835938 C-9.32633206 58.21184068 -9.66462275 62.10577478 -10 66 C-10.33 66 -10.66 66 -11 66 C-11.31944262 49.83265419 -10.27154433 34.77716897 -6.625 19 C-6.42817627 18.13971191 -6.23135254 17.27942383 -6.02856445 16.39306641 C-4.61686 10.60827509 -2.59286753 5.35719105 0 0 Z " fill="#130F10" transform="translate(24,127)"/>
<path d="M0 0 C0.495 1.485 0.495 1.485 1 3 C-0.34578125 4.2375 -0.34578125 4.2375 -1.71875 5.5 C-9.62414121 12.80625478 -17.34973776 20.25237146 -24.89453125 27.93164062 C-25.53390625 28.57939453 -26.17328125 29.22714844 -26.83203125 29.89453125 C-27.39639893 30.47050049 -27.9607666 31.04646973 -28.54223633 31.63989258 C-30 33 -30 33 -32 34 C-32.66 34.99 -33.32 35.98 -34 37 C-34.3125 34.8125 -34.3125 34.8125 -34 32 C-31.75 29.4375 -31.75 29.4375 -29 27 C-26.63192631 24.69958556 -24.84235203 22.76352804 -23 20 C-20.375 18.8125 -20.375 18.8125 -18 18 C-18 17.34 -18 16.68 -18 16 C-16.6015625 14.58984375 -16.6015625 14.58984375 -14.625 12.9375 C-11.20148675 10.02935433 -7.83383262 7.07339727 -4.5 4.0625 C-3.6440625 3.29035156 -2.788125 2.51820313 -1.90625 1.72265625 C-1.2771875 1.15417969 -0.648125 0.58570313 0 0 Z " fill="#858588" transform="translate(304,143)"/>
<path d="M0 0 C0.33 0 0.66 0 1 0 C1 7.59 1 15.18 1 23 C-4.85773978 24.17154796 -9.40436412 23.51776062 -15.25 22.6875 C-16.26835937 22.55666016 -17.28671875 22.42582031 -18.3359375 22.29101562 C-19.30273438 22.15759766 -20.26953125 22.02417969 -21.265625 21.88671875 C-22.15024414 21.76514404 -23.03486328 21.64356934 -23.94628906 21.51831055 C-24.62401367 21.34726807 -25.30173828 21.17622559 -26 21 C-26.33 20.34 -26.66 19.68 -27 19 C-24.39576408 18.97302863 -21.79180756 18.95317511 -19.1875 18.9375 C-18.44951172 18.92912109 -17.71152344 18.92074219 -16.95117188 18.91210938 C-13.70077932 18.89740172 -11.10595105 18.96468298 -8 20 C-7.01 19.7525 -7.01 19.7525 -6 19.5 C-4 19 -4 19 -1 20 C-1.01160156 18.80761719 -1.02320313 17.61523438 -1.03515625 16.38671875 C-1.04453592 14.82031406 -1.05363593 13.25390769 -1.0625 11.6875 C-1.07087891 10.90181641 -1.07925781 10.11613281 -1.08789062 9.30664062 C-1.09272461 8.1706543 -1.09272461 8.1706543 -1.09765625 7.01171875 C-1.10551147 5.96697388 -1.10551147 5.96697388 -1.11352539 4.90112305 C-1 3 -1 3 0 0 Z " fill="#161415" transform="translate(178,333)"/>
<path d="M0 0 C1 3 1 3 0.01196289 4.99291992 C-0.4960083 5.73131104 -1.00397949 6.46970215 -1.52734375 7.23046875 C-2.34428711 8.43413086 -2.34428711 8.43413086 -3.17773438 9.66210938 C-4.04881836 10.91217773 -4.04881836 10.91217773 -4.9375 12.1875 C-5.8027832 13.4549707 -5.8027832 13.4549707 -6.68554688 14.74804688 C-8.11462404 16.83851513 -9.55297335 18.92193442 -11 21 C-14.78125 20.2421875 -14.78125 20.2421875 -16.75 18.0625 C-18 16 -18 16 -18 14 C-18.66 14 -19.32 14 -20 14 C-23.01136859 11.22027515 -25.64197151 8.35088259 -28 5 C-21.2617801 6.94659686 -21.2617801 6.94659686 -19 10 C-18.731875 10.845625 -18.46375 11.69125 -18.1875 12.5625 C-17.16922849 15.33285604 -17.16922849 15.33285604 -13.875 16.3125 C-12.92625 16.539375 -11.9775 16.76625 -11 17 C-11 15.35 -11 13.7 -11 12 C-10.01 11.67 -9.02 11.34 -8 11 C-8 9.68 -8 8.36 -8 7 C-7.01 7.33 -6.02 7.66 -5 8 C-4.67 6.35 -4.34 4.7 -4 3 C-2.68 2.67 -1.36 2.34 0 2 C0 1.34 0 0.68 0 0 Z " fill="#7A797B" transform="translate(347,257)"/>
<path d="M0 0 C1.98 0.99 1.98 0.99 4 2 C4 2.66 4 3.32 4 4 C5.32 4.33 6.64 4.66 8 5 C8.061875 5.721875 8.12375 6.44375 8.1875 7.1875 C9.24223426 10.83850322 11.28149926 12.42090955 14 15 C14 15.66 14 16.32 14 17 C14.66 17 15.32 17 16 17 C16.33 17.99 16.66 18.98 17 20 C19.81509993 22.2773501 19.81509993 22.2773501 23 22 C23.66 23.32 24.32 24.64 25 26 C23.35 26.33 21.7 26.66 20 27 C19.443125 26.278125 18.88625 25.55625 18.3125 24.8125 C16.09086368 22.00719578 16.09086368 22.00719578 13.68359375 19.734375 C10.79006349 16.78609089 8.2636784 13.70753971 5.75 10.4375 C5.30398437 9.87353516 4.85796875 9.30957031 4.3984375 8.72851562 C2.22761555 5.91631446 0.45556033 3.58315724 0 0 Z " fill="#211F20" transform="translate(39,275)"/>
<path d="M0 0 C-3.75 2 -3.75 2 -6 2 C-6 2.66 -6 3.32 -6 4 C-20.47572816 10 -20.47572816 10 -25 10 C-25.928125 10.33 -26.85625 10.66 -27.8125 11 C-30.78490986 11.93252074 -32.92194279 12.18106219 -36 12 C-32.37049387 8.80755481 -28.37560689 7.51888109 -23.875 6 C-23.11670898 5.73944824 -22.35841797 5.47889648 -21.57714844 5.21044922 C-19.38802594 4.46345672 -17.19518827 3.7289485 -15 3 C-13.95585937 2.65195312 -12.91171875 2.30390625 -11.8359375 1.9453125 C-7.70305246 0.63427646 -4.3686961 -0.13747645 0 0 Z " fill="#504F50" transform="translate(150,20)"/>
<path d="M0 0 C0.66 0 1.32 0 2 0 C2 0.66 2 1.32 2 2 C3.32 1.67 4.64 1.34 6 1 C4.70725253 8.41713859 -3.25198261 13.15953834 -8.7890625 17.6171875 C-11.21599039 19.1350894 -13.18247906 19.6144445 -16 20 C-16 19.34 -16 18.68 -16 18 C-14.28515625 16.78125 -14.28515625 16.78125 -12.0625 15.5 C-8.94567974 13.81545121 -8.94567974 13.81545121 -7 11 C-6.34 11 -5.68 11 -5 11 C-4.87625 10.401875 -4.7525 9.80375 -4.625 9.1875 C-4 7 -4 7 -2 4 C-1.31822584 2.67432801 -0.64808564 1.34246312 0 0 Z " fill="#78797A" transform="translate(307,302)"/>
<path d="M0 0 C0.33 0 0.66 0 1 0 C1.00808685 0.93516449 1.01617371 1.87032898 1.02450562 2.83383179 C1.1018864 11.63358546 1.18960492 20.43318299 1.28752708 29.23273277 C1.33753915 33.75701182 1.38386856 38.28126696 1.421875 42.80566406 C1.45866604 47.16942978 1.50500872 51.53299777 1.55806351 55.896595 C1.57664045 57.56397672 1.59173613 59.23140087 1.60334396 60.89884567 C1.62015033 63.22883233 1.64917067 65.55836288 1.68115234 67.88818359 C1.68331253 68.58229843 1.68547272 69.27641327 1.68769836 69.99156189 C1.66348305 73.93779378 1.66348305 73.93779378 4 77 C2.35 76.67 0.7 76.34 -1 76 C-0.505 38.38 -0.505 38.38 0 0 Z " fill="#858586" transform="translate(224,248)"/>
<path d="M0 0 C1.5 1.125 1.5 1.125 3 3 C3 5 3 7 3 9 C4.41977909 11.22743787 4.41977909 11.22743787 6 13 C6 13.66 6 14.32 6 15 C8.475 15.99 8.475 15.99 11 17 C10.814375 17.5775 10.62875 18.155 10.4375 18.75 C9.95976454 21.20692525 10.24270636 22.64397534 11 25 C10.01 25 9.02 25 8 25 C6.31633005 21.94655708 4.65618778 18.88092357 3 15.8125 C2.52304687 14.94818359 2.04609375 14.08386719 1.5546875 13.19335938 C1.10351562 12.35224609 0.65234375 11.51113281 0.1875 10.64453125 C-0.44091797 9.48981323 -0.44091797 9.48981323 -1.08203125 8.31176758 C-2.11210918 5.71766973 -2.17114843 3.76618651 -2 1 C-1.34 0.67 -0.68 0.34 0 0 Z " fill="#191718" transform="translate(29,249)"/>
<path d="M0 0 C2.63506821 3.29787678 4.60060588 6.80110704 6.625 10.5 C10.03956895 16.66476476 13.96780517 22.11182699 18.41015625 27.57421875 C18.93480469 28.37472656 19.45945312 29.17523438 20 30 C19.67 30.99 19.34 31.98 19 33 C14 27.25 14 27.25 14 25 C13.34 25 12.68 25 12 25 C6.22247103 17.66097672 1.94473829 9.42739543 -2 1 C-1.34 0.67 -0.68 0.34 0 0 Z " fill="#393939" transform="translate(54,245)"/>
<path d="M0 0 C0 7.72727611 -6.26015702 15.58697823 -10.55078125 21.76953125 C-13.07461365 25.65392019 -15.00978252 29.82486985 -17 34 C-17.66393676 35.3346948 -18.32967955 36.66849983 -19 38 C-20.14473385 34.56579845 -19.93233808 34.19845099 -18.48046875 31.078125 C-18.12210938 30.30645996 -17.76375 29.53479492 -17.39453125 28.73974609 C-16.79705078 27.50732178 -16.79705078 27.50732178 -16.1875 26.25 C-15.7853125 25.40904785 -15.383125 24.5680957 -14.96875 23.70166016 C-11.03877625 15.70114053 -6.3759476 6.3759476 0 0 Z " fill="#1F1E1E" transform="translate(45,88)"/>
<path d="M0 0 C4.88811068 0.56142159 8.82956164 2.14228851 13.1875 4.3125 C19.33427147 7.28556298 25.51791904 9.83032217 32 12 C32 12.66 32 13.32 32 14 C32.99 14.33 33.98 14.66 35 15 C21.8976775 13.42639616 11.06476892 7.77675057 0 1 C0 0.67 0 0.34 0 0 Z " fill="#424242" transform="translate(112,310)"/>
<path d="M0 0 C4.18299398 0.54663692 7.44846798 1.47885794 11.1953125 3.40625 C12.6328186 4.14536621 12.6328186 4.14536621 14.09936523 4.89941406 C15.09782471 5.42760742 16.09628418 5.95580078 17.125 6.5 C18.14730713 7.03592773 19.16961426 7.57185547 20.22290039 8.12402344 C27.72070068 12.1331852 34.52442669 16.48531821 41 22 C37.19385396 22 35.92403469 20.83773404 32.75 18.75 C25.3412623 13.99237941 17.53639029 10.03061633 9.69628906 6.03808594 C8.73045898 5.5434082 7.76462891 5.04873047 6.76953125 4.5390625 C5.46399292 3.87704834 5.46399292 3.87704834 4.13208008 3.20166016 C2 2 2 2 0 0 Z " fill="#B4B4B6" transform="translate(239,53)"/>
<path d="M0 0 C0.66 0 1.32 0 2 0 C0.68925925 3.62531709 -0.89949646 6.46819773 -3.1875 9.5625 C-8.92580612 17.58417376 -13.72976379 26.11790868 -18 35 C-19 33 -19 33 -18.36328125 30.8984375 C-16.10695924 25.47990954 -13.70225935 20.21150018 -11 15 C-10.34 15 -9.68 15 -9 15 C-8.731875 14.030625 -8.46375 13.06125 -8.1875 12.0625 C-7.5996875 10.5465625 -7.5996875 10.5465625 -7 9 C-6.01 8.67 -5.02 8.34 -4 8 C-2.87483915 6.16715557 -2.87483915 6.16715557 -2 4 C-1.33333333 2.66666667 -0.66666667 1.33333333 0 0 Z " fill="#1C1B1C" transform="translate(69,99)"/>
<path d="M0 0 C3.42077608 1.14532651 4.50272307 2.69199978 6.63671875 5.5703125 C7.31734375 6.47136719 7.99796875 7.37242188 8.69921875 8.30078125 C9.33859375 9.15285156 9.97796875 10.00492188 10.63671875 10.8828125 C11.62766495 12.05717903 12.62588358 13.2255211 13.63671875 14.3828125 C15.63671875 16.8828125 15.63671875 16.8828125 15.63671875 18.8828125 C14.64671875 18.8828125 13.65671875 18.8828125 12.63671875 18.8828125 C12.63671875 18.2228125 12.63671875 17.5628125 12.63671875 16.8828125 C11.31671875 16.5528125 9.99671875 16.2228125 8.63671875 15.8828125 C8.63671875 14.5628125 8.63671875 13.2428125 8.63671875 11.8828125 C7.97671875 11.8828125 7.31671875 11.8828125 6.63671875 11.8828125 C6.03859375 10.9546875 5.44046875 10.0265625 4.82421875 9.0703125 C2.60831659 5.84142649 1.14590262 4.50243583 -2.36328125 2.8828125 C-3.35328125 2.8828125 -4.34328125 2.8828125 -5.36328125 2.8828125 C-3.60471097 0.56890424 -2.98004724 -0.14777094 0 0 Z " fill="#D1D0D0" transform="translate(327.36328125,86.1171875)"/>
<path d="M0 0 C0 0.66 0 1.32 0 2 C-1.63064764 3.05771739 -3.30280873 4.05273046 -5 5 C-5.99 5.66 -6.98 6.32 -8 7 C-12.01056276 8.11404521 -15.85636019 8.08124784 -20 8 C-20 7.34 -20 6.68 -20 6 C-18.68 6 -17.36 6 -16 6 C-16 5.34 -16 4.68 -16 4 C-14.08594633 3.32586789 -12.16863974 2.6609668 -10.25 2 C-9.18265625 1.62875 -8.1153125 1.2575 -7.015625 0.875 C-4 0 -4 0 0 0 Z " fill="#97989A" transform="translate(244,319)"/>
<path d="M0 0 C1.32 0.66 2.64 1.32 4 2 C4 2.33 4 2.66 4 3 C5.32 2.67 6.64 2.34 8 2 C8 1.34 8 0.68 8 0 C8.99 0 9.98 0 11 0 C11 0.66 11 1.32 11 2 C10.34 2 9.68 2 9 2 C9 2.66 9 3.32 9 4 C9.66 4.33 10.32 4.66 11 5 C9.04578965 5.86355778 7.08648653 6.71559934 5.125 7.5625 C4.03445312 8.03816406 2.94390625 8.51382813 1.8203125 9.00390625 C0.88960937 9.33261719 -0.04109375 9.66132812 -1 10 C-1.66 9.67 -2.32 9.34 -3 9 C-3 8.01 -3 7.02 -3 6 C-2.01 5.67 -1.02 5.34 0 5 C0 3.35 0 1.7 0 0 Z " fill="#4A494A" transform="translate(128,48)"/>
<path d="M0 0 C5.52075993 3.0113236 10.49920977 6.74881466 14 12 C13.34 12.66 12.68 13.32 12 14 C12 13.34 12 12.68 12 12 C11.34 12 10.68 12 10 12 C9.67 12.66 9.34 13.32 9 14 C8.01 13.01 7.02 12.02 6 11 C6.33 10.01 6.66 9.02 7 8 C6.05125 7.71125 5.1025 7.4225 4.125 7.125 C1 6 1 6 -1 4 C-0.625 1.875 -0.625 1.875 0 0 Z " fill="#A6A6A6" transform="translate(282,193)"/>
<path d="M0 0 C0.66 0.66 1.32 1.32 2 2 C1.984375 3.81640625 1.984375 3.81640625 1 6 C-0.88201324 7.77521188 -2.71731168 9.35732681 -4.75 10.9375 C-8.73841087 14.0998797 -12.46456675 17.34017188 -16 21 C-16.99 20.34 -17.98 19.68 -19 19 C-18.31421875 18.6390625 -17.6284375 18.278125 -16.921875 17.90625 C-13.23281968 15.49948663 -10.33360994 12.6251867 -7.25 9.5 C-6.66089844 8.91863281 -6.07179688 8.33726563 -5.46484375 7.73828125 C-4.62373047 6.89330078 -4.62373047 6.89330078 -3.765625 6.03125 C-3.25805664 5.52142578 -2.75048828 5.01160156 -2.22753906 4.48632812 C-0.76598097 2.89842356 -0.76598097 2.89842356 0 0 Z " fill="#9D9C9D" transform="translate(310,63)"/>
<path d="M0 0 C0.66 0.33 1.32 0.66 2 1 C0.4375 3.9375 0.4375 3.9375 -2 7 C-5.75 7.875 -5.75 7.875 -9 8 C-9.33 8.99 -9.66 9.98 -10 11 C-11.65 11 -13.3 11 -15 11 C-12.77063131 6.4480486 -10.4711763 4.79543556 -5.9375 2.625 C-4.87402344 2.10164063 -3.81054688 1.57828125 -2.71484375 1.0390625 C-1.81894531 0.69617187 -0.92304687 0.35328125 0 0 Z M-17 11 C-15 12 -15 12 -15 12 Z " fill="#3E3E3E" transform="translate(112,32)"/>
<path d="M0 0 C1.75129657 1.10210905 3.50098464 2.20677432 5.25 3.3125 C6.22453125 3.92738281 7.1990625 4.54226562 8.203125 5.17578125 C10.54733713 6.70475759 12.78784032 8.28820977 15 10 C14.6875 12.375 14.6875 12.375 14 15 C13.01 15.66 12.02 16.32 11 17 C11.11794922 15.87658203 11.11794922 15.87658203 11.23828125 14.73046875 C11.25761688 11.92570736 11.25761688 11.92570736 9.35546875 10.05078125 C8.64003906 9.47714844 7.92460937 8.90351562 7.1875 8.3125 C6.47980469 7.73113281 5.77210938 7.14976563 5.04296875 6.55078125 C3.40543543 5.30775882 1.71059102 4.14039401 0 3 C0 2.01 0 1.02 0 0 Z " fill="#DDDCDD" transform="translate(295,52)"/>
<path d="M0 0 C7.95800678 2.292985 14.81917721 5.94899487 22 10 C22 10.66 22 11.32 22 12 C18.85262818 11.30058404 15.97411124 10.23921302 13 9 C13 8.34 13 7.68 13 7 C9.95086772 5.98888907 9.95086772 5.98888907 7 7 C6.5875 6.54625 6.175 6.0925 5.75 5.625 C3.93591905 3.94049626 2.24714373 3.00734029 0 2 C0 1.34 0 0.68 0 0 Z " fill="#DADADB" transform="translate(256,30)"/>
<path d="M0 0 C9.29969244 -0.69602688 17.20121611 1.34017869 26 4 C25.67 4.66 25.34 5.32 25 6 C24.31373535 5.87882812 23.6274707 5.75765625 22.92041016 5.6328125 C19.82224617 5.08678801 16.72363199 4.54336201 13.625 4 C12.00464844 3.71382812 12.00464844 3.71382812 10.3515625 3.421875 C9.3203125 3.24140625 8.2890625 3.0609375 7.2265625 2.875 C6.27346191 2.70742188 5.32036133 2.53984375 4.33837891 2.3671875 C2.06520716 1.94829144 2.06520716 1.94829144 0 2 C0 1.34 0 0.68 0 0 Z " fill="#DBDBDC" transform="translate(213,19)"/>
<path d="M0 0 C0.66 0 1.32 0 2 0 C2 0.66 2 1.32 2 2 C0.63671875 3.33984375 0.63671875 3.33984375 -1.3125 4.9375 C-5.0157472 8.08326912 -8.50238092 11.38075917 -11.9375 14.8125 C-12.4219458 15.29259521 -12.9063916 15.77269043 -13.40551758 16.26733398 C-16.03332653 18.88471124 -16.03332653 18.88471124 -18 22 C-18.66 22 -19.32 22 -20 22 C-18.2034488 17.75360625 -15.18376817 13.09188408 -11 11 C-10.67 10.01 -10.34 9.02 -10 8 C-8.02053408 6.63636792 -6.0180755 5.30581356 -4 4 C-3.2575 3.2575 -2.515 2.515 -1.75 1.75 C-1.1725 1.1725 -0.595 0.595 0 0 Z " fill="#191919" transform="translate(92,76)"/>
<path d="M0 0 C0 0.99 0 1.98 0 3 C-4.75 4 -4.75 4 -7 4 C-7.928125 4.33 -8.85625 4.66 -9.8125 5 C-12.78490986 5.93252074 -14.92194279 6.18106219 -18 6 C-15.14160085 3.69740069 -12.39581962 2.13731655 -9 0.75 C-8.154375 0.39421875 -7.30875 0.0384375 -6.4375 -0.328125 C-3.81117065 -1.05204912 -2.52787043 -0.9128421 0 0 Z " fill="#494849" transform="translate(132,26)"/>
<path d="M0 0 C9.24247227 4.45007924 9.24247227 4.45007924 12 9 C12.6875 11.25 12.6875 11.25 13 13 C11.125 12.8125 11.125 12.8125 9 12 C7.8125 9.5 7.8125 9.5 7 7 C5.93354885 5.70366379 5.93354885 5.70366379 3.4375 5.9375 C2.633125 5.958125 1.82875 5.97875 1 6 C0.67 4.02 0.34 2.04 0 0 Z " fill="#A3A3A3" transform="translate(297,209)"/>
<path d="M0 0 C0.12375 0.61875 0.2475 1.2375 0.375 1.875 C0.87197356 4.19120832 0.87197356 4.19120832 3 6 C2.67 6.66 2.34 7.32 2 8 C0.906875 7.814375 -0.18625 7.62875 -1.3125 7.4375 C-4.93624133 6.7421932 -4.93624133 6.7421932 -8 8 C-7.9375 6.25 -7.9375 6.25 -7 4 C-4.75835678 2.40498463 -2.46433357 1.25456982 0 0 Z " fill="#BFC0BF" transform="translate(284,127)"/>
<path d="M0 0 C0.66 0 1.32 0 2 0 C2.77040851 6.06696699 3.09706112 11.88514973 3 18 C2.01 18 1.02 18 0 18 C0 12.06 0 6.12 0 0 Z " fill="#6E6E6F" transform="translate(196,279)"/>
<path d="M0 0 C5.4903368 0.45461387 9.29145138 1.92370267 13.9375 4.9375 C14.52595703 5.29779297 15.11441406 5.65808594 15.72070312 6.02929688 C17.1894636 6.95558833 18.60105344 7.97130095 20 9 C20 9.66 20 10.32 20 11 C15.50675151 9.34229667 11.38813854 7.15017838 7.1875 4.875 C6.49462891 4.50246094 5.80175781 4.12992188 5.08789062 3.74609375 C3.39065164 2.83309623 1.69514862 1.91687284 0 1 C0 0.67 0 0.34 0 0 Z " fill="#89898B" transform="translate(248,55)"/>
<path d="M0 0 C0.33 0.66 0.66 1.32 1 2 C1.66 1.34 2.32 0.68 3 0 C5.125 0.375 5.125 0.375 7 1 C7 1.99 7 2.98 7 4 C9.475 4.99 9.475 4.99 12 6 C9 8 9 8 7.02734375 7.93359375 C4.89785681 7.42808937 2.98454678 6.93012236 1 6 C-0.5 3.375 -0.5 3.375 -1 1 C-0.67 0.67 -0.34 0.34 0 0 Z " fill="#1B191A" transform="translate(138,345)"/>
<path d="M0 0 C0 3.95564164 -1.40521394 5.10866696 -4 8 C-4.99 8.66 -5.98 9.32 -7 10 C-7 10.99 -7 11.98 -7 13 C-9.64 13.33 -12.28 13.66 -15 14 C-15.33 13.01 -15.66 12.02 -16 11 C-14.35 10.34 -12.7 9.68 -11 9 C-10.67 9.66 -10.34 10.32 -10 11 C-9.75507813 10.41734375 -9.51015625 9.8346875 -9.2578125 9.234375 C-7.79564126 6.63697764 -6.15259586 5.16024169 -3.875 3.25 C-3.15054688 2.63640625 -2.42609375 2.0228125 -1.6796875 1.390625 C-0.84824219 0.70226562 -0.84824219 0.70226562 0 0 Z " fill="#959698" transform="translate(248,194)"/>
<path d="M0 0 C0.99 0.33 1.98 0.66 3 1 C2.34 1 1.68 1 1 1 C1 1.66 1 2.32 1 3 C1.639375 3.28875 2.27875 3.5775 2.9375 3.875 C5 5 5 5 6 7 C5.401875 7.144375 4.80375 7.28875 4.1875 7.4375 C2.43849596 7.8872439 0.71322977 8.42892341 -1 9 C-1.33 8.01 -1.66 7.02 -2 6 C-2.99 6.66 -3.98 7.32 -5 8 C-5.66 7.67 -6.32 7.34 -7 7 C-4.69 4.69 -2.38 2.38 0 0 Z " fill="#888A8D" transform="translate(291,286)"/>
<path d="M0 0 C2.4375 0.8125 2.4375 0.8125 5 2 C5.33 2.99 5.66 3.98 6 5 C6.66 5 7.32 5 8 5 C11 8.46153846 11 8.46153846 11 11 C11.99 11 12.98 11 14 11 C14 11.66 14 12.32 14 13 C9.72538761 12.51061681 7.67448934 10.04257174 4.75 7.0625 C3.85796875 6.16660156 2.9659375 5.27070313 2.046875 4.34765625 C0 2 0 2 0 0 Z " fill="#68696B" transform="translate(321,266)"/>
<path d="M0 0 C1.14926266 0.95421808 2.29430541 1.91352045 3.4375 2.875 C4.07558594 3.40867188 4.71367187 3.94234375 5.37109375 4.4921875 C7 6 7 6 8 8 C7.0625 10.125 7.0625 10.125 6 12 C4.35 12 2.7 12 1 12 C1.33 11.01 1.66 10.02 2 9 C2 5.61976483 1.12544378 3.16531063 0 0 Z " fill="#A2A2A3" transform="translate(319,227)"/>
<path d="M0 0 C0.66 0.33 1.32 0.66 2 1 C-2.33333333 5.33333333 -6.66666667 9.66666667 -11 14 C-11.66 13.34 -12.32 12.68 -13 12 C-11.21135158 10.18443212 -9.41928379 8.37248378 -7.625 6.5625 C-7.11710937 6.04623047 -6.60921875 5.52996094 -6.0859375 4.99804688 C-2.2265625 1.11328125 -2.2265625 1.11328125 0 0 Z " fill="#979698" transform="translate(342,106)"/>
<path d="M0 0 C0.66 0 1.32 0 2 0 C2 0.66 2 1.32 2 2 C3.32 1.67 4.64 1.34 6 1 C5.67 1.99 5.34 2.98 5 4 C4.21625 4.061875 3.4325 4.12375 2.625 4.1875 C1.75875 4.455625 0.8925 4.72375 0 5 C-1.15521502 7.47130918 -1.15521502 7.47130918 -2 10 C-2.99 10.33 -3.98 10.66 -5 11 C-4.38722388 8.03824877 -3.74627478 6.61941217 -2 4 C-1.31822584 2.67432801 -0.64808564 1.34246312 0 0 Z " fill="#808083" transform="translate(307,302)"/>
<path d="M0 0 C5.83092022 2.60856957 10.8330391 6.27284441 16 10 C15.34 10.66 14.68 11.32 14 12 C11.5 10.625 11.5 10.625 9 9 C9 8.34 9 7.68 9 7 C8.278125 6.731875 7.55625 6.46375 6.8125 6.1875 C4.02409874 5.01017502 1.55904276 3.60854116 -1 2 C-0.67 1.34 -0.34 0.68 0 0 Z " fill="#DBDBDB" transform="translate(279,41)"/>
<path d="M0 0 C3.82943966 0.57835931 5.84938662 2.31366131 8.6875 4.875 C9.47511719 5.57367188 10.26273438 6.27234375 11.07421875 6.9921875 C13 9 13 9 14 12 C8.25190165 10.02922342 4.0382862 6.48698467 0 2 C0 1.34 0 0.68 0 0 Z " fill="#434343" transform="translate(86,290)"/>
<path d="M0 0 C1.32 0.33 2.64 0.66 4 1 C4 1.66 4 2.32 4 3 C5.051875 3.37125 5.051875 3.37125 6.125 3.75 C9.41286474 5.17950641 12.15545943 6.81698049 15 9 C15 9.99 15 10.98 15 12 C15.33 12.66 15.66 13.32 16 14 C12.15150165 12.43209327 9.91061833 9.91061833 7 7 C5.74367568 6.08393018 4.47237244 5.1880784 3.1875 4.3125 C2.135625 3.549375 1.08375 2.78625 0 2 C0 1.34 0 0.68 0 0 Z " fill="#969697" transform="translate(268,65)"/>
<path d="M0 0 C0.66 0.66 1.32 1.32 2 2 C1.21625 2.7425 0.4325 3.485 -0.375 4.25 C-2.56504531 6.54433318 -3.82731386 8.12158858 -5 11 C-6.32 10.67 -7.64 10.34 -9 10 C-9 10.66 -9 11.32 -9 12 C-9.66 11.67 -10.32 11.34 -11 11 C-7.33333333 7.33333333 -3.66666667 3.66666667 0 0 Z " fill="#CCCCCC" transform="translate(310,101)"/>
<path d="M0 0 C0.33 0 0.66 0 1 0 C1.74440282 9.12752383 2.25610227 17.87876505 1 27 C0.67 27 0.34 27 0 27 C-0.8149484 17.8224273 -1.11139151 9.18180367 0 0 Z " fill="#818182" transform="translate(198,261)"/>
<path d="M0 0 C0.99 0 1.98 0 3 0 C3 0.66 3 1.32 3 2 C3.99 1.67 4.98 1.34 6 1 C7.20628008 3.33214148 8.1654738 5.49642139 9 8 C9.66 8.33 10.32 8.66 11 9 C11 9.66 11 10.32 11 11 C8.20171644 10.61402985 7.1794116 10.19863427 5.25 8.0625 C4 6 4 6 4 4 C2.68 3.34 1.36 2.68 0 2 C0 1.34 0 0.68 0 0 Z " fill="#8D8D8F" transform="translate(289,232)"/>
<path d="M0 0 C4 0 4 0 5.921875 1.6796875 C6.52515625 2.40414062 7.1284375 3.12859375 7.75 3.875 C8.36359375 4.59429687 8.9771875 5.31359375 9.609375 6.0546875 C11 8 11 8 11 10 C12.32 10.66 13.64 11.32 15 12 C11.38739215 11.69894935 10.25490423 11.29131912 7.8125 8.5 C7.214375 7.675 6.61625 6.85 6 6 C5.34 5.67 4.68 5.34 4 5 C4 4.34 4 3.68 4 3 C2.68 2.34 1.36 1.68 0 1 C0 0.67 0 0.34 0 0 Z " fill="#666667" transform="translate(285,232)"/>
<path d="M0 0 C2.13093906 1.06546953 3.36587557 2.29159719 5 4 C4.01 4 3.02 4 2 4 C1.67 4.99 1.34 5.98 1 7 C-1.0625 7.6875 -1.0625 7.6875 -3 8 C-3.75 6.25 -3.75 6.25 -4 4 C-2.0625 1.75 -2.0625 1.75 0 0 Z " fill="#C6C6C6" transform="translate(291,120)"/>
<path d="M0 0 C2 2 2 2 2.0625 4.8125 C2.041875 5.864375 2.02125 6.91625 2 8 C2.291224 9.67453799 2.61070799 11.34550895 3 13 C2.01 12.67 1.02 12.34 0 12 C-0.80078125 10.0390625 -0.80078125 10.0390625 -1.3125 7.625 C-1.49425781 6.83351562 -1.67601563 6.04203125 -1.86328125 5.2265625 C-2 3 -2 3 0 0 Z " fill="#201E1F" transform="translate(21,227)"/>
<path d="M0 0 C1.875 0.625 1.875 0.625 4 2 C5.25 5.125 5.25 5.125 6 8 C4.35 8.33 2.7 8.66 1 9 C1.020625 8.071875 1.04125 7.14375 1.0625 6.1875 C1.15769604 2.97713989 1.15769604 2.97713989 0 0 Z " fill="#9C9DA0" transform="translate(338,247)"/>
<path d="M0 0 C3.58620225 1.65517027 6.81530529 3.66455721 10 6 C10.33 6.99 10.66 7.98 11 9 C7.00584176 7.63057432 4.11667166 5.85694902 1 3 C0.67 2.01 0.34 1.02 0 0 Z " fill="#39393A" transform="translate(99,300)"/>
<path d="M0 0 C0.66 0 1.32 0 2 0 C3.31909709 6.4489191 2.69508823 12.48755792 2 19 C1.67 19 1.34 19 1 19 C0.67 12.73 0.34 6.46 0 0 Z " fill="#5E5E5E" transform="translate(196,254)"/>
<path d="M0 0 C0.66 0.33 1.32 0.66 2 1 C0.375 3.9375 0.375 3.9375 -2 7 C-5.25 7.875 -5.25 7.875 -8 8 C-7.00310315 4.31148165 -6.31080309 3.19425193 -3 1.125 C-2.01 0.75375 -1.02 0.3825 0 0 Z " fill="#494949" transform="translate(112,32)"/>
<path d="M0 0 C0 0.66 0 1.32 0 2 C-2.81769349 4.17364926 -4.2190681 5.08677021 -7.8125 4.6875 C-8.534375 4.460625 -9.25625 4.23375 -10 4 C-10 3.34 -10 2.68 -10 2 C-6.38026598 0.68373308 -3.90432869 0 0 0 Z " fill="#A0A0A2" transform="translate(244,319)"/>
<path d="M0 0 C0.598125 0.165 1.19625 0.33 1.8125 0.5 C4.11344336 1.1114124 4.11344336 1.1114124 7 1 C7.66 2.32 8.32 3.64 9 5 C7.35 5.33 5.7 5.66 4 6 C2.68 4.02 1.36 2.04 0 0 Z " fill="#151415" transform="translate(55,296)"/>
<path d="M0 0 C0.99 1.32 1.98 2.64 3 4 C1.02 8.455 1.02 8.455 -1 13 C-1.33 13 -1.66 13 -2 13 C-1.48041715 8.62065881 -0.94324258 4.31196609 0 0 Z M-3 13 C-2 17 -2 17 -2 17 Z " fill="#272526" transform="translate(21,138)"/>
<path d="M0 0 C2.31 1.98 4.62 3.96 7 6 C5.68 6.99 4.36 7.98 3 9 C0.70620251 5.55930376 0 4.27709699 0 0 Z " fill="#9F9FA0" transform="translate(312,220)"/>
<path d="M0 0 C1.86562642 1.57297914 2.90238443 2.45510217 3.34057617 4.90112305 C3.32486572 5.59761963 3.30915527 6.29411621 3.29296875 7.01171875 C3.28330078 7.76904297 3.27363281 8.52636719 3.26367188 9.30664062 C3.23853516 10.09232422 3.21339844 10.87800781 3.1875 11.6875 C3.17396484 12.48478516 3.16042969 13.28207031 3.14648438 14.10351562 C3.11117089 16.06929967 3.05736447 18.03473582 3 20 C2.67 20 2.34 20 2 20 C1.93941406 19.07316406 1.87882813 18.14632812 1.81640625 17.19140625 C1.73261719 15.99386719 1.64882812 14.79632813 1.5625 13.5625 C1.48128906 12.36753906 1.40007812 11.17257813 1.31640625 9.94140625 C1.32343886 7.11429756 1.32343886 7.11429756 0 6 C-0.04080783 4.00041636 -0.04254356 1.99954746 0 0 Z " fill="#393939" transform="translate(134,176)"/>
<path d="M0 0 C-1.55780332 0.67756882 -3.12150096 1.34159457 -4.6875 2 C-5.55761719 2.37125 -6.42773438 2.7425 -7.32421875 3.125 C-10.0572002 4.01870488 -12.14700934 4.16449676 -15 4 C-10.86492484 0.20951444 -5.37957111 -1.79319037 0 0 Z " fill="#626162" transform="translate(247,347)"/>
<path d="M0 0 C4.24822374 0.47202486 6.19989709 2.96655518 9 6 C8.67 6.66 8.34 7.32 8 8 C4.27382578 6.75794193 2.60708543 4.8889325 0 2 C0 1.34 0 0.68 0 0 Z " fill="#A7A7AA" transform="translate(292,287)"/>
<path d="M0 0 C0.66 0 1.32 0 2 0 C0.44298069 4.67105792 -2.08447373 8.08705685 -5 12 C-5.66 11.67 -6.32 11.34 -7 11 C-6.67 10.01 -6.34 9.02 -6 8 C-5.34 8 -4.68 8 -4 8 C-3.71125 7.4225 -3.4225 6.845 -3.125 6.25 C-2.08333333 4.16666667 -1.04166667 2.08333333 0 0 Z " fill="#232325" transform="translate(69,99)"/>
<path d="M0 0 C0.99 0.33 1.98 0.66 3 1 C2.814375 1.5775 2.62875 2.155 2.4375 2.75 C1.95976454 5.20692525 2.24270636 6.64397534 3 9 C2.01 9 1.02 9 0 9 C-1.125 6.75 -1.125 6.75 -2 4 C-1.125 1.6875 -1.125 1.6875 0 0 Z " fill="#1D1C1C" transform="translate(37,265)"/>
<path d="M0 0 C0.99 0.33 1.98 0.66 3 1 C1.70700306 3.88437779 0.34058637 5.87219421 -2 8 C-2.99 7.67 -3.98 7.34 -5 7 C-4.0409375 6.1028125 -4.0409375 6.1028125 -3.0625 5.1875 C-0.79689611 3.09189663 -0.79689611 3.09189663 0 0 Z " fill="#929294" transform="translate(229,210)"/>
<path d="M0 0 C1.32 0 2.64 0 4 0 C4.33 0.99 4.66 1.98 5 3 C5.99 3.33 6.98 3.66 8 4 C7.67 4.99 7.34 5.98 7 7 C4.0625 5.75 4.0625 5.75 1 4 C0.125 1.8125 0.125 1.8125 0 0 Z " fill="#252124" transform="translate(74,314)"/>
<path d="M0 0 C2.31 0.33 4.62 0.66 7 1 C4.13700494 3.86299506 2.34147716 3.99421225 -1.6875 4.0625 C-2.780625 4.041875 -3.87375 4.02125 -5 4 C-4.67 3.34 -4.34 2.68 -4 2 C-3.01 2 -2.02 2 -1 2 C-0.67 1.34 -0.34 0.68 0 0 Z " fill="#5C5C5C" transform="translate(160,17)"/>
<path d="M0 0 C0.99 0.33 1.98 0.66 3 1 C1.515 2.485 1.515 2.485 0 4 C0.66 4.33 1.32 4.66 2 5 C0.02 5.99 0.02 5.99 -2 7 C-2.6875 5.1875 -2.6875 5.1875 -3 3 C-1.5625 1.25 -1.5625 1.25 0 0 Z " fill="#383637" transform="translate(61,71)"/>
<path d="M0 0 C6.70212766 1.93617021 6.70212766 1.93617021 9 5 C9 5.66 9 6.32 9 7 C4.58110387 5.64978174 2.65654657 3.73884332 0 0 Z " fill="#8A8B8C" transform="translate(319,262)"/>
<path d="M0 0 C2.62187494 1.04874998 3.79371361 1.64931313 5.25 4.125 C5.4975 4.74375 5.745 5.3625 6 6 C4.35 6 2.7 6 1 6 C0.67 4.02 0.34 2.04 0 0 Z " fill="#9C9C9E" transform="translate(297,209)"/>
<path d="M0 0 C0.99 0.33 1.98 0.66 3 1 C1.88121617 2.17262904 0.75476949 3.33795138 -0.375 4.5 C-1.00148437 5.1496875 -1.62796875 5.799375 -2.2734375 6.46875 C-4 8 -4 8 -6 8 C-4.55746343 4.63408134 -2.66735273 2.48952921 0 0 Z " fill="#6C6D6E" transform="translate(246,198)"/>
<path d="M0 0 C1.7074998 1.28062485 3.37373596 2.61767557 5 4 C5 4.66 5 5.32 5 6 C3.35 6 1.7 6 0 6 C-0.38218767 4.34385343 -0.71395102 2.67542976 -1 1 C-0.67 0.67 -0.34 0.34 0 0 Z " fill="#9E9EA0" transform="translate(282,193)"/>
<path d="M0 0 C1.32 0 2.64 0 4 0 C3.34 1.32 2.68 2.64 2 4 C1.01 4 0.02 4 -1 4 C-1.33 4.99 -1.66 5.98 -2 7 C-2.99 6.67 -3.98 6.34 -5 6 C-4.01 5.67 -3.02 5.34 -2 5 C-0.78130071 2.49552484 -0.78130071 2.49552484 0 0 Z " fill="#3E3E40" transform="translate(101,65)"/>
<path d="M0 0 C3.3 0.99 6.6 1.98 10 3 C10 3.66 10 4.32 10 5 C2.25 3.125 2.25 3.125 0 2 C0 1.34 0 0.68 0 0 Z " fill="#D5D5D5" transform="translate(240,24)"/>
<path d="M0 0 C0 3 0 3 -2.5 5.6875 C-3.325 6.450625 -4.15 7.21375 -5 8 C-5.66 7.67 -6.32 7.34 -7 7 C-5.12050295 3.42895561 -3.82946843 1.45255699 0 0 Z " fill="#69696D" transform="translate(311,305)"/>
<path d="M0 0 C0.66 0 1.32 0 2 0 C2 0.66 2 1.32 2 2 C3.32 1.67 4.64 1.34 6 1 C5.67 1.99 5.34 2.98 5 4 C2.69 4 0.38 4 -2 4 C-1.34 2.68 -0.68 1.36 0 0 Z " fill="#88888A" transform="translate(307,302)"/>
<path d="M0 0 C1.5625 1.0625 1.5625 1.0625 3 3 C2.6875 6.6875 2.6875 6.6875 2 10 C0 8 0 8 -0.1953125 6.0546875 C-0.13020833 4.03645833 -0.06510417 2.01822917 0 0 Z M-1 10 C1 11 1 11 1 11 Z " fill="#191819" transform="translate(150,316)"/>
<path d="M0 0 C5.53846154 0.61538462 5.53846154 0.61538462 7.875 2.5625 C8.431875 3.2740625 8.431875 3.2740625 9 4 C8.01 4.495 8.01 4.495 7 5 C4.5249829 3.88568235 2.32116581 2.41849022 0 1 C0 0.67 0 0.34 0 0 Z " fill="#3E3E3E" transform="translate(112,310)"/>
<path d="M0 0 C2.5 1.375 2.5 1.375 5 3 C5 3.66 5 4.32 5 5 C5.99 5 6.98 5 8 5 C8 5.66 8 6.32 8 7 C4.21388773 6.45912682 2.44599233 4.88277668 0 2 C0 1.34 0 0.68 0 0 Z " fill="#626263" transform="translate(327,272)"/>
<path d="M0 0 C0.66 0.33 1.32 0.66 2 1 C-0.65654657 4.73884332 -2.58110387 6.64978174 -7 8 C-6.02133662 6.85373678 -5.04205413 5.70800212 -4.0625 4.5625 C-3.51722656 3.92441406 -2.97195312 3.28632813 -2.41015625 2.62890625 C-1.63204305 1.73008851 -0.84063472 0.84063472 0 0 Z " fill="#919193" transform="translate(236,171)"/>
<path d="M0 0 C0.66 0.33 1.32 0.66 2 1 C1.01 3.97 0.02 6.94 -1 10 C-1.66 8.68 -2.32 7.36 -3 6 C-1.625 2.75 -1.625 2.75 0 0 Z " fill="#191919" transform="translate(24,127)"/>
<path d="M0 0 C0.66 0.33 1.32 0.66 2 1 C1.38125 1.2475 0.7625 1.495 0.125 1.75 C-2.35068687 3.20628639 -2.95125002 4.37812506 -4 7 C-4.33 6.34 -4.66 5.68 -5 5 C-5.66 4.67 -6.32 4.34 -7 4 C-1.7265625 0.77734375 -1.7265625 0.77734375 0 0 Z " fill="#373637" transform="translate(97,40)"/>
<path d="M0 0 C0.268125 0.639375 0.53625 1.27875 0.8125 1.9375 C1.88667752 4.33131686 1.88667752 4.33131686 5 5 C2 6 2 6 -0.1875 5.0625 C-0.785625 4.711875 -1.38375 4.36125 -2 4 C-1.34 2.68 -0.68 1.36 0 0 Z " fill="#151515" transform="translate(100,330)"/>
<path d="M0 0 C2.64 1.98 5.28 3.96 8 6 C7.34 6.66 6.68 7.32 6 8 C4.99403703 7.0479279 3.99538437 6.08812654 3 5.125 C2.443125 4.59132813 1.88625 4.05765625 1.3125 3.5078125 C0 2 0 2 0 0 Z " fill="#373739" transform="translate(78,282)"/>
<path d="M0 0 C1.8125 0.1875 1.8125 0.1875 4 1 C5.75 3.5625 5.75 3.5625 7 6 C4 6 4 6 1.8125 4.125 C0 2 0 2 0 0 Z " fill="#727373" transform="translate(315,260)"/>
<path d="M0 0 C0.99 0.99 1.98 1.98 3 3 C2.67 3.66 2.34 4.32 2 5 C0.35 5 -1.3 5 -3 5 C-2 2 -2 2 0 0 Z " fill="#939496" transform="translate(323,234)"/>
<path d="M0 0 C2.31 1.98 4.62 3.96 7 6 C6.67 6.66 6.34 7.32 6 8 C3.5625 6.8125 3.5625 6.8125 1 5 C0.1875 2.3125 0.1875 2.3125 0 0 Z " fill="#818083" transform="translate(265,208)"/>
<path d="M0 0 C2.31 0.33 4.62 0.66 7 1 C6.67 1.99 6.34 2.98 6 4 C4.125 3.6875 4.125 3.6875 2 3 C1.34 2.01 0.68 1.02 0 0 Z " fill="#909090" transform="translate(287,82)"/>
<path d="M0 0 C0.33 0.66 0.66 1.32 1 2 C-4.75 6 -4.75 6 -7 6 C-5.9024777 3.00675737 -5.32317108 2.15389099 -2.375 0.75 C-1.59125 0.5025 -0.8075 0.255 0 0 Z " fill="#6F6F70" transform="translate(294,320)"/>
<path d="M0 0 C0.66 0.33 1.32 0.66 2 1 C1.67 1.99 1.34 2.98 1 4 C-1.5625 5.1875 -1.5625 5.1875 -4 6 C-4.33 5.01 -4.66 4.02 -5 3 C-2.625 1.4375 -2.625 1.4375 0 0 Z " fill="#8B8C8D" transform="translate(264,307)"/>
<path d="M0 0 C0.66 0 1.32 0 2 0 C1.50168276 3.68754757 0.89932357 5.60490662 -2 8 C-2 6.68 -2 5.36 -2 4 C-1.34 4 -0.68 4 0 4 C0 2.68 0 1.36 0 0 Z " fill="#8C8D8F" transform="translate(339,264)"/>
</svg>
